<?xml version="1.0" encoding="UTF-8"?>
<svg xmlns="http://www.w3.org/2000/svg" viewBox="0 0 1760 560" width="1760" height="560">
  <defs>
    <style>
      .bark-dark   { fill: #6e3617; }
      .bark-light  { fill: #a85a2b; }
      .leaf-dgreen { fill: #415b2c; }
      .leaf-mgreen { fill: #5c7a39; }
      .leaf-orange { fill: #bd6a30; }
      .leaf-gold   { fill: #cf9a2c; }
      .frame       { fill: none; stroke: #2f5d3a; stroke-width: 13; stroke-linecap: butt; }
      .book-cover  { fill: #a8512a; }
      .book-spine  { fill: #6e3617; }
      .book-page   { fill: #f4efe6; }
      .book-line   { stroke: #6e3617; stroke-width: 3; opacity: .55; }
      .wm          { font-family: 'Arial Rounded MT Bold', 'Helvetica Neue', Helvetica, Arial, sans-serif;
                     font-size: 196px; font-weight: 800; letter-spacing: -5px; }
      .wm-afri     { fill: #bd6a30; }
      .wm-play     { fill: #3f5e2e; }
    </style>
  </defs>

  <!-- ============================= ICON ============================= -->
  <g transform="translate(10, 28) scale(0.84)">
    <!-- Focus-frame corner brackets -->
    <path class="frame" d="M 55 135 L 55 58 L 132 58"/>
    <path class="frame" d="M 545 135 L 545 58 L 468 58"/>
    <path class="frame" d="M 55 465 L 55 542 L 132 542"/>
    <path class="frame" d="M 545 465 L 545 542 L 468 542"/>

    <!-- Side branch reaching LEFT (dark) -->
    <path class="bark-dark" d="M 286 312 C 232 286, 176 286, 132 312 C 156 320, 178 322, 196 322 C 232 322, 262 336, 288 356 Z"/>
    <!-- Side branch reaching RIGHT (light) -->
    <path class="bark-light" d="M 314 322 C 368 294, 426 294, 470 322 C 446 330, 422 332, 404 332 C 368 332, 338 346, 312 366 Z"/>

    <!-- Central upward V branches -->
    <path class="bark-dark" d="M 290 360 C 282 296, 290 232, 314 178 C 322 188, 322 206, 318 224 C 304 274, 308 322, 324 360 Z"/>
    <path class="bark-light" d="M 308 360 C 322 300, 356 248, 402 198 C 410 210, 404 228, 392 248 C 362 296, 338 330, 326 362 Z"/>

    <!-- Main trunk: LIGHT (right) half -->
    <path class="bark-light" d="M 300 320 C 326 356, 338 432, 332 502 C 329 536, 344 558, 380 572 C 416 584, 432 560, 408 544 C 380 524, 366 474, 364 432 C 362 388, 352 348, 322 322 Z"/>
    <!-- Main trunk: DARK (left) half -->
    <path class="bark-dark" d="M 300 320 C 278 356, 268 434, 270 502 C 272 538, 256 558, 220 572 C 184 584, 168 558, 192 542 C 220 522, 236 472, 240 430 C 244 386, 256 350, 300 320 Z"/>

    <!-- Foliage -->
    <circle class="leaf-dgreen" cx="300" cy="78"  r="36"/>
    <circle class="leaf-orange" cx="360" cy="98"  r="27"/>
    <circle class="leaf-mgreen" cx="244" cy="100" r="30"/>
    <circle class="leaf-dgreen" cx="182" cy="122" r="29"/>
    <circle class="leaf-mgreen" cx="420" cy="110" r="27"/>
    <circle class="leaf-dgreen" cx="474" cy="142" r="31"/>
    <circle class="leaf-orange" cx="300" cy="135" r="20"/>
    <circle class="leaf-orange" cx="112" cy="178" r="30"/>
    <circle class="leaf-mgreen" cx="152" cy="216" r="34"/>
    <circle class="leaf-dgreen" cx="92"  cy="232" r="26"/>
    <circle class="leaf-orange" cx="200" cy="180" r="23"/>
    <circle class="leaf-mgreen" cx="252" cy="158" r="22"/>
    <circle class="leaf-mgreen" cx="490" cy="202" r="30"/>
    <circle class="leaf-orange" cx="448" cy="238" r="33"/>
    <circle class="leaf-dgreen" cx="524" cy="244" r="24"/>
    <circle class="leaf-mgreen" cx="400" cy="180" r="22"/>
    <circle class="leaf-dgreen" cx="338" cy="150" r="20"/>
    <circle class="leaf-orange" cx="300" cy="248" r="20"/>
    <circle class="leaf-dgreen" cx="214" cy="292" r="15"/>
    <circle class="leaf-orange" cx="138" cy="300" r="17"/>
    <circle class="leaf-gold"   cx="172" cy="334" r="12"/>
    <circle class="leaf-mgreen" cx="408" cy="296" r="15"/>
    <circle class="leaf-orange" cx="470" cy="300" r="17"/>
    <circle class="leaf-gold"   cx="440" cy="334" r="12"/>

    <!-- Book icon (top-left) -->
    <g transform="translate(78, 22)">
      <path class="book-page" d="M 4 8 C 18 2, 33 2, 44 7 L 44 44 C 33 39, 18 39, 4 45 Z"/>
      <path class="book-page" d="M 84 8 C 70 2, 55 2, 44 7 L 44 44 C 55 39, 70 39, 84 45 Z"/>
      <rect class="book-spine" x="41" y="6" width="6" height="40" rx="2"/>
      <path class="book-cover" d="M 4 45 L 4 8 C 2 8, 0 10, 0 13 L 0 48 C 0 50, 2 51, 4 50 Z"/>
      <path class="book-cover" d="M 84 45 L 84 8 C 86 8, 88 10, 88 13 L 88 48 C 88 50, 86 51, 84 50 Z"/>
      <line class="book-line" x1="12" y1="16" x2="36" y2="13"/>
      <line class="book-line" x1="12" y1="24" x2="36" y2="21"/>
      <line class="book-line" x1="12" y1="32" x2="34" y2="29"/>
      <line class="book-line" x1="52" y1="13" x2="76" y2="16"/>
      <line class="book-line" x1="52" y1="21" x2="76" y2="24"/>
      <line class="book-line" x1="54" y1="29" x2="76" y2="32"/>
    </g>
  </g>

  <!-- ============================= WORDMARK ============================= -->
  <text x="515" y="355" class="wm"><tspan class="wm-afri">Afri</tspan><tspan class="wm-play">Playbook</tspan></text>
</svg>
